<svg width="787" height="380" xmlns="http://www.w3.org/2000/svg" xmlns:xlink="http://www.w3.org/1999/xlink" xml:space="preserve" overflow="hidden"><defs><clipPath id="clip0"><rect x="229" y="68" width="787" height="380"/></clipPath><clipPath id="clip1"><rect x="229" y="68" width="787" height="380"/></clipPath><clipPath id="clip2"><rect x="230" y="68" width="785" height="379"/></clipPath><clipPath id="clip3"><rect x="230" y="68" width="785" height="379"/></clipPath><clipPath id="clip4"><rect x="230" y="68" width="785" height="379"/></clipPath><linearGradient x1="133.925" y1="451.911" x2="403.111" y2="451.911" gradientUnits="userSpaceOnUse" spreadMethod="pad" id="fill5"><stop offset="0" stop-color="#48AE42" stop-opacity="1"/><stop offset="1" stop-color="#0B94D5" stop-opacity="1"/></linearGradient></defs><g clip-path="url(#clip0)" transform="translate(-229 -68)"><g clip-path="url(#clip1)"><g clip-path="url(#clip2)"><g clip-path="url(#clip3)"><g clip-path="url(#clip4)"><path d="M241.328 302.273C224.986 302.274 211.737 315.523 211.736 331.866 211.735 344.649 219.941 355.986 232.082 359.981L231.758 471.6C231.748 474.635 231.256 477.65 230.297 480.529L229.932 481.622C229.932 481.622 223.155 453.835 203.377 437.568 207.036 432.518 209.007 426.441 209.008 420.205 209.01 403.859 195.758 390.607 179.411 390.608 163.066 390.609 149.817 403.861 149.818 420.205 149.82 436.549 163.068 449.797 179.411 449.799 182.133 449.799 184.841 449.423 187.46 448.682L187.136 448.983 198.432 461.644C203.81 467.671 211.833 478.395 212.569 486.364 212.952 490.507 212.698 494.86 211.852 499.127 211.219 502.326 208.521 506.746 206.267 509.102L172.973 543.907C169.928 542.883 166.736 542.361 163.523 542.362 147.178 542.361 133.927 555.61 133.925 571.955 133.927 588.3 147.178 601.549 163.523 601.548 179.865 601.546 193.114 588.298 193.115 571.955 193.115 565.703 191.136 559.612 187.46 554.556L374.73 366.583C376.283 365.025 378.806 365.02 380.364 366.573 380.588 366.796 380.785 367.045 380.95 367.315L386.381 376.19C387.405 377.862 389.589 378.387 391.261 377.364 392.116 376.84 392.71 375.979 392.895 374.994L397.151 352.409 402.175 325.742C402.473 324.159 401.431 322.633 399.847 322.335 399.344 322.24 398.825 322.279 398.341 322.448L372.736 331.432 350.591 339.198C348.925 339.782 348.048 341.606 348.632 343.272 348.944 344.159 349.629 344.864 350.508 345.199L358.437 348.23C360.054 348.848 360.864 350.66 360.246 352.277 360.095 352.672 359.865 353.033 359.571 353.337L251.328 465.301 250.994 359.838C262.922 355.717 270.925 344.486 270.926 331.867 270.925 315.521 257.674 302.273 241.328 302.273Z" fill="url(#fill5)" fill-rule="nonzero" transform="matrix(1.00013 0 0 1 96.0575 -234.214)"/><text fill="#002D4C" fill-opacity="1" font-family="Arial,Arial_MSFontService,sans-serif" font-style="normal" font-variant="normal" font-weight="400" font-stretch="normal" font-size="16.9333" text-anchor="start" direction="ltr" writing-mode="lr-tb" unicode-bidi="normal" text-decoration="none" transform="matrix(9.22863 0 0 9.22741 459.506 314)">PlanViz</text><text fill="#19475C" fill-opacity="1" font-family="Arial,Arial_MSFontService,sans-serif" font-style="normal" font-variant="normal" font-weight="400" font-stretch="normal" font-size="6.35" text-anchor="start" direction="ltr" writing-mode="lr-tb" unicode-bidi="normal" text-decoration="none" transform="matrix(9.22863 0 0 9.22741 507.472 382)">AI Planning Graph</text><text fill="#19475C" fill-opacity="1" font-family="Arial,Arial_MSFontService,sans-serif" font-style="normal" font-variant="normal" font-weight="400" font-stretch="normal" font-size="6.35" text-anchor="start" direction="ltr" writing-mode="lr-tb" unicode-bidi="normal" text-decoration="none" transform="matrix(9.22863 0 0 9.22741 507.472 446)">Visualization</text></g></g></g></g></g></svg>